# File created by Blade
# Date/Time:  Fri Jan 16 17:25:22 2015
# Frame Rate: 120.000 fps
#------------------------------------------------------
:FULLY-SPECIFIED
:DEGREES
1288
root -5.793206 35.222680 -9.855288 -0.344520 -8.526941 -6.095851
Spine -0.637582 0.708982 10.434089
Head -0.565475 9.181711 -8.190038
LeftShoulder -25.519741 18.104466 -1.846181
LeftArm 21.477668 -48.070369 -36.362220
LeftForeArm 20.272242 -0.000000 11.559342
LeftHand -3.524683 -0.000000 -1.879293
LeftHandThumb1 -26.253704 0.000000 33.147579
RightShoulder -7.082598 9.114085 -18.022367
RightArm -5.136345 10.533845 23.754949
RightForeArm -31.709831 0.000000 16.197341
RightHand -0.682085 0.000000 8.266988
RightHandThumb1 -24.326973 -0.000000 -32.862282
LeftUpLeg 11.407467 16.472946 7.696462
LeftLeg -9.098847 -0.000000 0.000000
LeftFoot -15.981947 29.122760 -8.894924
LeftToeBase 22.639338 -0.000000 -0.000000
RightUpLeg 7.051126 -4.184382 2.882567
RightLeg -4.288420 -0.000000 0.000000
RightFoot -4.742225 -23.279056 6.138003
RightToeBase 13.498842 -0.000000 -0.000000
1289
root -5.788512 35.222726 -9.845362 -0.311900 -8.504668 -6.091515
Spine -0.715739 0.719787 10.467031
Head -0.497978 9.122291 -8.254161
LeftShoulder -25.615487 17.953698 -1.373212
LeftArm 21.773831 -49.201267 -36.620297
LeftForeArm 20.305478 -0.000000 11.711184
LeftHand -3.563819 -0.000000 -1.257662
LeftHandThumb1 -26.253704 0.000000 33.147579
RightShoulder -7.098045 9.611910 -18.526458
RightArm -5.576526 11.645600 23.149900
RightForeArm -32.271105 -0.000000 16.128901
RightHand -0.578070 -0.000000 8.437541
RightHandThumb1 -24.326973 -0.000000 -32.862282
LeftUpLeg 11.379116 16.432177 7.671807
LeftLeg -9.093606 -0.000000 0.000000
LeftFoot -15.997873 29.149995 -8.881031
LeftToeBase 22.689906 -0.000000 -0.000000
RightUpLeg 7.028787 -4.205136 2.869044
RightLeg -4.273814 -0.000000 0.000000
RightFoot -4.759644 -23.261912 6.170841
RightToeBase 13.472005 -0.000000 -0.000000
1290
root -5.788457 35.222565 -9.834561 -0.279292 -8.508146 -6.092195
Spine -0.799931 0.757107 10.492713
Head -0.402102 9.056105 -8.305525
LeftShoulder -25.710113 17.853706 -0.956693
LeftArm 22.035973 -50.135779 -36.725088
LeftForeArm 20.126790 -0.000000 11.784836
LeftHand -3.583924 0.000000 -0.725373
LeftHandThumb1 -26.253704 0.000000 33.147579
RightShoulder -7.135303 10.039743 -18.991847
RightArm -5.929689 12.635020 22.586993
RightForeArm -32.395111 -0.000000 16.068041
RightHand -0.864618 0.000000 8.247615
RightHandThumb1 -24.326973 -0.000000 -32.862282
LeftUpLeg 11.368326 16.430725 7.664804
LeftLeg -9.101492 -0.000000 0.000000
LeftFoot -16.019869 29.159174 -8.910628
LeftToeBase 22.688543 -0.000000 -0.000000
RightUpLeg 7.010752 -4.189629 2.870552
RightLeg -4.269936 -0.000000 0.000000
RightFoot -4.779519 -23.278364 6.176424
RightToeBase 13.536339 -0.000000 -0.000000
1291
root -5.787571 35.222542 -9.826371 -0.234144 -8.490471 -6.089533
Spine -0.903823 0.777376 10.517150
Head -0.274293 9.004636 -8.354938
LeftShoulder -25.800072 17.696627 -0.498858
LeftArm 22.291563 -50.968494 -36.874190
LeftForeArm 20.164846 -0.000000 11.879291
LeftHand -3.675906 0.000000 -0.304430
LeftHandThumb1 -26.253704 0.000000 33.147579
RightShoulder -7.176098 10.452521 -19.439206
RightArm -6.272679 13.395435 21.989536
RightForeArm -32.962585 0.000000 16.085010
RightHand -0.974498 -0.000000 8.615728
RightHandThumb1 -24.326973 -0.000000 -32.862282
LeftUpLeg 11.325356 16.413797 7.642182
LeftLeg -9.093158 -0.000000 0.000000
LeftFoot -16.023419 29.156723 -8.964574
LeftToeBase 22.583339 -0.000000 -0.000000
RightUpLeg 6.974289 -4.207041 2.867425
RightLeg -4.260343 -0.000000 0.000000
RightFoot -4.794639 -23.286922 6.170983
RightToeBase 13.536953 -0.000000 -0.000000
1292
root -5.788769 35.222601 -9.817229 -0.197642 -8.480458 -6.093992
Spine -1.002433 0.823495 10.542280
Head -0.124889 8.897771 -8.409678
LeftShoulder -25.850673 17.633345 -0.127452
LeftArm 22.596623 -51.793049 -36.948403
LeftForeArm 20.116843 -0.000000 11.869423
LeftHand -3.693611 0.000000 0.018464
LeftHandThumb1 -26.253704 0.000000 33.147579
RightShoulder -7.260906 10.857531 -19.868748
RightArm -6.518746 14.102076 21.443708
RightForeArm -33.396604 -0.000000 16.029624
RightHand -1.153266 -0.000000 8.649038
RightHandThumb1 -24.326973 -0.000000 -32.862282
LeftUpLeg 11.302670 16.417059 7.639787
LeftLeg -9.094215 -0.000000 0.000000
LeftFoot -16.033250 29.146878 -8.977046
LeftToeBase 22.575902 -0.000000 -0.000000
RightUpLeg 6.949530 -4.217495 2.873004
RightLeg -4.250142 -0.000000 0.000000
RightFoot -4.812840 -23.283648 6.202687
RightToeBase 13.488636 -0.000000 -0.000000
1293
root -5.794108 35.222484 -9.807730 -0.166397 -8.470095 -6.100356
Spine -1.099569 0.881585 10.536071
Head 0.042025 8.799610 -8.375568
LeftShoulder -25.860937 17.487085 0.276236
LeftArm 22.751745 -52.423251 -36.787578
LeftForeArm 20.211841 0.000000 11.768087
LeftHand -3.787027 -0.000000 0.223697
LeftHandThumb1 -26.253704 0.000000 33.147579
RightShoulder -7.325254 11.289706 -20.259265
RightArm -6.777199 14.552493 20.914830
RightForeArm -33.820745 -0.000000 15.915303
RightHand -1.474923 -0.000000 8.854181
RightHandThumb1 -24.326973 -0.000000 -32.862282
LeftUpLeg 11.289949 16.399477 7.648486
LeftLeg -9.097536 -0.000000 0.000000
LeftFoot -16.050959 29.143916 -9.002591
LeftToeBase 22.577573 -0.000000 -0.000000
RightUpLeg 6.967088 -4.075781 2.891677
RightLeg -4.302813 -0.000000 0.000000
RightFoot -4.832520 -23.376704 6.299098
RightToeBase 13.486067 -0.000000 -0.000000
1294
root -5.795064 35.221758 -9.796262 -0.126869 -8.449328 -6.103477
Spine -1.224572 0.928966 10.546702
Head 0.250674 8.725492 -8.358272
LeftShoulder -25.852911 17.319626 0.708287
LeftArm 22.846540 -52.953546 -36.636727
LeftForeArm 20.416613 -0.000000 11.732396
LeftHand -4.032499 0.000000 0.299593
LeftHandThumb1 -26.253704 0.000000 33.147579
RightShoulder -7.398637 11.642505 -20.674412
RightArm -7.015157 15.056776 20.448056
RightForeArm -34.346367 -0.000000 15.889195
RightHand -1.575198 -0.000000 8.946311
RightHandThumb1 -24.326973 -0.000000 -32.862282
LeftUpLeg 11.278489 16.373059 7.644574
LeftLeg -9.127427 -0.000000 0.000000
LeftFoot -16.050149 29.156748 -8.966473
LeftToeBase 22.670750 -0.000000 -0.000000
RightUpLeg 6.958879 -4.074409 2.894629
RightLeg -4.318772 -0.000000 0.000000
RightFoot -4.855434 -23.385664 6.333116
RightToeBase 13.500715 -0.000000 -0.000000
